<mxfile host="app.diagrams.net" agent="Mozilla/5.0 (X11; Linux x86_64; rv:132.0) Gecko/20100101 Firefox/132.0" version="25.0.3">
  <diagram name="Page-1" id="b-phnQtY8w-KlV_uJ_3L">
    <mxGraphModel dx="1153" dy="540" grid="0" gridSize="10" guides="1" tooltips="1" connect="0" arrows="0" fold="1" page="1" pageScale="1" pageWidth="850" pageHeight="1100" math="0" shadow="0">
      <root>
        <mxCell id="0" />
        <mxCell id="1" parent="0" />
        <mxCell id="JkCgDZ_3WZx2CO2fW6xH-47" value="" style="rounded=0;whiteSpace=wrap;html=1;" parent="1" vertex="1">
          <mxGeometry x="384" y="80" width="403" height="256" as="geometry" />
        </mxCell>
        <mxCell id="JkCgDZ_3WZx2CO2fW6xH-4" value="" style="whiteSpace=wrap;html=1;aspect=fixed;strokeColor=default;" parent="1" vertex="1">
          <mxGeometry x="9" y="80" width="255" height="255" as="geometry" />
        </mxCell>
        <mxCell id="JkCgDZ_3WZx2CO2fW6xH-6" value="" style="endArrow=classic;html=1;rounded=0;exitX=1;exitY=0.5;exitDx=0;exitDy=0;entryX=0;entryY=0.5;entryDx=0;entryDy=0;" parent="1" target="JkCgDZ_3WZx2CO2fW6xH-28" edge="1">
          <mxGeometry width="50" height="50" relative="1" as="geometry">
            <mxPoint x="264" y="200" as="sourcePoint" />
            <mxPoint x="454" y="200.07999999999993" as="targetPoint" />
          </mxGeometry>
        </mxCell>
        <mxCell id="JkCgDZ_3WZx2CO2fW6xH-7" value="" style="endArrow=classic;html=1;rounded=0;exitX=0;exitY=0.5;exitDx=0;exitDy=0;entryX=0.997;entryY=0.625;entryDx=0;entryDy=0;entryPerimeter=0;" parent="1" source="JkCgDZ_3WZx2CO2fW6xH-26" edge="1">
          <mxGeometry width="50" height="50" relative="1" as="geometry">
            <mxPoint x="454" y="282.49" as="sourcePoint" />
            <mxPoint x="263.03999999999996" y="282.41" as="targetPoint" />
            <Array as="points" />
          </mxGeometry>
        </mxCell>
        <mxCell id="JkCgDZ_3WZx2CO2fW6xH-9" value="&lt;div&gt;&lt;font face=&quot;CMU Serif&quot;&gt;Servidor&lt;br&gt;&lt;/font&gt;&lt;/div&gt;" style="text;html=1;align=center;verticalAlign=middle;whiteSpace=wrap;rounded=0;" parent="1" vertex="1">
          <mxGeometry x="395" y="85" width="58" height="30" as="geometry" />
        </mxCell>
        <mxCell id="JkCgDZ_3WZx2CO2fW6xH-10" value="" style="whiteSpace=wrap;html=1;aspect=fixed;" parent="1" vertex="1">
          <mxGeometry x="239" y="185" width="25" height="25" as="geometry" />
        </mxCell>
        <mxCell id="JkCgDZ_3WZx2CO2fW6xH-1" value="" style="sketch=0;pointerEvents=1;shadow=0;dashed=0;html=1;strokeColor=none;labelPosition=center;verticalLabelPosition=bottom;verticalAlign=top;outlineConnect=0;align=center;shape=mxgraph.office.security.lock_protected;fillColor=#000000;" parent="1" vertex="1">
          <mxGeometry x="224" y="160" width="30" height="40" as="geometry" />
        </mxCell>
        <mxCell id="JkCgDZ_3WZx2CO2fW6xH-11" value="" style="pointerEvents=1;shadow=0;dashed=0;html=1;strokeColor=none;fillColor=#000000;labelPosition=center;verticalLabelPosition=bottom;verticalAlign=top;align=center;outlineConnect=0;shape=mxgraph.veeam.cpu;" parent="1" vertex="1">
          <mxGeometry x="174" y="260.1" width="44.8" height="44.8" as="geometry" />
        </mxCell>
        <mxCell id="JkCgDZ_3WZx2CO2fW6xH-12" value="" style="whiteSpace=wrap;html=1;aspect=fixed;" parent="1" vertex="1">
          <mxGeometry x="239" y="270" width="25" height="25" as="geometry" />
        </mxCell>
        <mxCell id="JkCgDZ_3WZx2CO2fW6xH-13" value="" style="endArrow=classic;html=1;rounded=0;exitX=0;exitY=0.5;exitDx=0;exitDy=0;" parent="1" source="JkCgDZ_3WZx2CO2fW6xH-12" target="JkCgDZ_3WZx2CO2fW6xH-11" edge="1">
          <mxGeometry width="50" height="50" relative="1" as="geometry">
            <mxPoint x="124" y="280" as="sourcePoint" />
            <mxPoint x="174" y="230" as="targetPoint" />
          </mxGeometry>
        </mxCell>
        <mxCell id="JkCgDZ_3WZx2CO2fW6xH-14" value="" style="pointerEvents=1;shadow=0;dashed=0;html=1;strokeColor=none;fillColor=#000000;labelPosition=center;verticalLabelPosition=bottom;verticalAlign=top;align=center;outlineConnect=0;shape=mxgraph.veeam.cpu;" parent="1" vertex="1">
          <mxGeometry x="33.999999999999986" y="260.1" width="44.8" height="44.8" as="geometry" />
        </mxCell>
        <mxCell id="JkCgDZ_3WZx2CO2fW6xH-15" value="" style="pointerEvents=1;shadow=0;dashed=0;html=1;strokeColor=none;fillColor=#000000;labelPosition=center;verticalLabelPosition=bottom;verticalAlign=top;align=center;outlineConnect=0;shape=mxgraph.veeam.cpu;" parent="1" vertex="1">
          <mxGeometry x="33.999999999999986" y="175.10000000000002" width="44.8" height="44.8" as="geometry" />
        </mxCell>
        <mxCell id="JkCgDZ_3WZx2CO2fW6xH-16" value="&lt;font face=&quot;CMU Serif&quot;&gt;Cliente&lt;/font&gt;" style="text;html=1;align=center;verticalAlign=middle;whiteSpace=wrap;rounded=0;" parent="1" vertex="1">
          <mxGeometry x="13" y="83.65" width="60" height="30" as="geometry" />
        </mxCell>
        <mxCell id="JkCgDZ_3WZx2CO2fW6xH-18" value="" style="whiteSpace=wrap;html=1;aspect=fixed;" parent="1" vertex="1">
          <mxGeometry x="46.400000000000006" y="305.9" width="20" height="20" as="geometry" />
        </mxCell>
        <mxCell id="JkCgDZ_3WZx2CO2fW6xH-19" value="" style="whiteSpace=wrap;html=1;aspect=fixed;" parent="1" vertex="1">
          <mxGeometry x="46.400000000000006" y="220.9" width="20" height="20" as="geometry" />
        </mxCell>
        <mxCell id="JkCgDZ_3WZx2CO2fW6xH-21" value="" style="endArrow=classic;html=1;rounded=0;entryX=1;entryY=0.5;entryDx=0;entryDy=0;fillColor=#f8cecc;strokeColor=#b85450;" parent="1" source="JkCgDZ_3WZx2CO2fW6xH-11" target="JkCgDZ_3WZx2CO2fW6xH-18" edge="1">
          <mxGeometry width="50" height="50" relative="1" as="geometry">
            <mxPoint x="164" y="330" as="sourcePoint" />
            <mxPoint x="214" y="280" as="targetPoint" />
            <Array as="points">
              <mxPoint x="196" y="316" />
            </Array>
          </mxGeometry>
        </mxCell>
        <mxCell id="JkCgDZ_3WZx2CO2fW6xH-22" value="" style="endArrow=classic;html=1;rounded=0;entryX=1;entryY=0.5;entryDx=0;entryDy=0;fillColor=#f8cecc;strokeColor=#b85450;" parent="1" source="JkCgDZ_3WZx2CO2fW6xH-11" target="JkCgDZ_3WZx2CO2fW6xH-19" edge="1">
          <mxGeometry width="50" height="50" relative="1" as="geometry">
            <mxPoint x="164" y="280" as="sourcePoint" />
            <mxPoint x="214" y="280" as="targetPoint" />
            <Array as="points">
              <mxPoint x="197" y="231" />
            </Array>
          </mxGeometry>
        </mxCell>
        <mxCell id="JkCgDZ_3WZx2CO2fW6xH-23" value="" style="endArrow=classic;html=1;rounded=0;fillColor=#dae8fc;strokeColor=#6c8ebf;" parent="1" source="JkCgDZ_3WZx2CO2fW6xH-15" target="JkCgDZ_3WZx2CO2fW6xH-1" edge="1">
          <mxGeometry width="50" height="50" relative="1" as="geometry">
            <mxPoint x="14" y="175.1" as="sourcePoint" />
            <mxPoint x="64" y="125.1" as="targetPoint" />
            <Array as="points">
              <mxPoint x="57" y="140" />
              <mxPoint x="239" y="140" />
            </Array>
          </mxGeometry>
        </mxCell>
        <mxCell id="JkCgDZ_3WZx2CO2fW6xH-26" value="" style="whiteSpace=wrap;html=1;aspect=fixed;" parent="1" vertex="1">
          <mxGeometry x="384" y="270" width="25" height="25" as="geometry" />
        </mxCell>
        <mxCell id="JkCgDZ_3WZx2CO2fW6xH-28" value="" style="whiteSpace=wrap;html=1;aspect=fixed;" parent="1" vertex="1">
          <mxGeometry x="384" y="188" width="25" height="25" as="geometry" />
        </mxCell>
        <mxCell id="JkCgDZ_3WZx2CO2fW6xH-30" value="" style="pointerEvents=1;shadow=0;dashed=0;html=1;strokeColor=none;fillColor=#000000;labelPosition=center;verticalLabelPosition=bottom;verticalAlign=top;align=center;outlineConnect=0;shape=mxgraph.veeam.cpu;" parent="1" vertex="1">
          <mxGeometry x="434" y="260.1" width="44.8" height="44.8" as="geometry" />
        </mxCell>
        <mxCell id="JkCgDZ_3WZx2CO2fW6xH-31" value="" style="pointerEvents=1;shadow=0;dashed=0;html=1;strokeColor=none;fillColor=#000000;labelPosition=center;verticalLabelPosition=bottom;verticalAlign=top;align=center;outlineConnect=0;shape=mxgraph.veeam.cpu;" parent="1" vertex="1">
          <mxGeometry x="434" y="178.1" width="44.8" height="44.8" as="geometry" />
        </mxCell>
        <mxCell id="JkCgDZ_3WZx2CO2fW6xH-32" value="" style="endArrow=classic;html=1;rounded=0;entryX=1;entryY=0.5;entryDx=0;entryDy=0;" parent="1" source="JkCgDZ_3WZx2CO2fW6xH-30" target="JkCgDZ_3WZx2CO2fW6xH-26" edge="1">
          <mxGeometry width="50" height="50" relative="1" as="geometry">
            <mxPoint x="424" y="280" as="sourcePoint" />
            <mxPoint x="474" y="230" as="targetPoint" />
          </mxGeometry>
        </mxCell>
        <mxCell id="JkCgDZ_3WZx2CO2fW6xH-33" value="" style="endArrow=classic;html=1;rounded=0;exitX=1;exitY=0.5;exitDx=0;exitDy=0;" parent="1" source="JkCgDZ_3WZx2CO2fW6xH-28" target="JkCgDZ_3WZx2CO2fW6xH-31" edge="1">
          <mxGeometry width="50" height="50" relative="1" as="geometry">
            <mxPoint x="424" y="280" as="sourcePoint" />
            <mxPoint x="474" y="230" as="targetPoint" />
          </mxGeometry>
        </mxCell>
        <mxCell id="JkCgDZ_3WZx2CO2fW6xH-34" value="" style="rounded=0;whiteSpace=wrap;html=1;aspect=fixed;" parent="1" vertex="1">
          <mxGeometry x="550" y="85" width="80" height="245" as="geometry" />
        </mxCell>
        <mxCell id="JkCgDZ_3WZx2CO2fW6xH-36" value="&lt;div&gt;&lt;font face=&quot;CMU Serif&quot;&gt;ThreadPool&lt;br&gt;&lt;/font&gt;&lt;/div&gt;" style="text;html=1;align=center;verticalAlign=middle;whiteSpace=wrap;rounded=0;aspect=fixed;" parent="1" vertex="1">
          <mxGeometry x="555" y="298" width="70" height="30" as="geometry" />
        </mxCell>
        <mxCell id="JkCgDZ_3WZx2CO2fW6xH-37" value="" style="pointerEvents=1;shadow=0;dashed=0;html=1;strokeColor=none;fillColor=#000000;labelPosition=center;verticalLabelPosition=bottom;verticalAlign=top;align=center;outlineConnect=0;shape=mxgraph.veeam.cpu;aspect=fixed;" parent="1" vertex="1">
          <mxGeometry x="567.6" y="113.64999999999998" width="44.8" height="44.8" as="geometry" />
        </mxCell>
        <mxCell id="JkCgDZ_3WZx2CO2fW6xH-38" value="" style="pointerEvents=1;shadow=0;dashed=0;html=1;strokeColor=none;fillColor=#000000;labelPosition=center;verticalLabelPosition=bottom;verticalAlign=top;align=center;outlineConnect=0;shape=mxgraph.veeam.cpu;aspect=fixed;" parent="1" vertex="1">
          <mxGeometry x="567.6" y="173.45" width="44.8" height="44.8" as="geometry" />
        </mxCell>
        <mxCell id="JkCgDZ_3WZx2CO2fW6xH-39" value="" style="pointerEvents=1;shadow=0;dashed=0;html=1;strokeColor=none;fillColor=#000000;labelPosition=center;verticalLabelPosition=bottom;verticalAlign=top;align=center;outlineConnect=0;shape=mxgraph.veeam.cpu;aspect=fixed;" parent="1" vertex="1">
          <mxGeometry x="567.6" y="233.55" width="44.8" height="44.8" as="geometry" />
        </mxCell>
        <mxCell id="JkCgDZ_3WZx2CO2fW6xH-41" value="" style="endArrow=classic;html=1;rounded=0;movable=1;resizable=1;rotatable=1;deletable=1;editable=1;locked=0;connectable=1;fillColor=#dae8fc;strokeColor=#6c8ebf;entryX=0.09;entryY=0.718;entryDx=0;entryDy=0;entryPerimeter=0;" parent="1" source="JkCgDZ_3WZx2CO2fW6xH-14" edge="1">
          <mxGeometry width="50" height="50" relative="1" as="geometry">
            <mxPoint x="76.10000000000002" y="280.60352941176467" as="sourcePoint" />
            <mxPoint x="223.99999999999994" y="188.00000000000003" as="targetPoint" />
            <Array as="points">
              <mxPoint x="142" y="283" />
              <mxPoint x="143" y="188" />
            </Array>
          </mxGeometry>
        </mxCell>
        <mxCell id="JkCgDZ_3WZx2CO2fW6xH-43" value="" style="endArrow=classic;html=1;rounded=0;entryX=0.005;entryY=0.471;entryDx=0;entryDy=0;entryPerimeter=0;fillColor=#dae8fc;strokeColor=#6c8ebf;" parent="1" target="JkCgDZ_3WZx2CO2fW6xH-34" edge="1">
          <mxGeometry width="50" height="50" relative="1" as="geometry">
            <mxPoint x="478.79999999999995" y="200.51" as="sourcePoint" />
            <mxPoint x="547.6400000000001" y="200.41499999999996" as="targetPoint" />
          </mxGeometry>
        </mxCell>
        <mxCell id="JkCgDZ_3WZx2CO2fW6xH-45" value="" style="endArrow=classic;html=1;rounded=0;fillColor=#f8cecc;strokeColor=#b85450;entryX=0.547;entryY=0.01;entryDx=0;entryDy=0;entryPerimeter=0;" parent="1" source="JkCgDZ_3WZx2CO2fW6xH-39" target="MhE1UDLTlUyAmdOrouHi-3" edge="1">
          <mxGeometry width="50" height="50" relative="1" as="geometry">
            <mxPoint x="569.6" y="260.10040000000004" as="sourcePoint" />
            <mxPoint x="523" y="285.686" as="targetPoint" />
            <Array as="points">
              <mxPoint x="541" y="256" />
              <mxPoint x="514" y="256" />
            </Array>
          </mxGeometry>
        </mxCell>
        <mxCell id="JkCgDZ_3WZx2CO2fW6xH-48" value="" style="whiteSpace=wrap;html=1;aspect=fixed;" parent="1" vertex="1">
          <mxGeometry x="762" y="188" width="25" height="25" as="geometry" />
        </mxCell>
        <mxCell id="JkCgDZ_3WZx2CO2fW6xH-50" value="" style="whiteSpace=wrap;html=1;aspect=fixed;" parent="1" vertex="1">
          <mxGeometry x="762" y="270" width="25" height="25" as="geometry" />
        </mxCell>
        <mxCell id="JkCgDZ_3WZx2CO2fW6xH-51" value="" style="pointerEvents=1;shadow=0;dashed=0;html=1;strokeColor=none;fillColor=#000000;labelPosition=center;verticalLabelPosition=bottom;verticalAlign=top;align=center;outlineConnect=0;shape=mxgraph.veeam.cpu;" parent="1" vertex="1">
          <mxGeometry x="692" y="260.1" width="44.8" height="44.8" as="geometry" />
        </mxCell>
        <mxCell id="JkCgDZ_3WZx2CO2fW6xH-52" value="" style="endArrow=classic;html=1;rounded=0;entryX=0;entryY=0.5;entryDx=0;entryDy=0;" parent="1" target="JkCgDZ_3WZx2CO2fW6xH-50" edge="1">
          <mxGeometry width="50" height="50" relative="1" as="geometry">
            <mxPoint x="733" y="283" as="sourcePoint" />
            <mxPoint x="708" y="233" as="targetPoint" />
          </mxGeometry>
        </mxCell>
        <mxCell id="JkCgDZ_3WZx2CO2fW6xH-53" value="" style="pointerEvents=1;shadow=0;dashed=0;html=1;strokeColor=none;fillColor=#000000;labelPosition=center;verticalLabelPosition=bottom;verticalAlign=top;align=center;outlineConnect=0;shape=mxgraph.veeam.cpu;" parent="1" vertex="1">
          <mxGeometry x="692" y="178.1" width="44.8" height="44.8" as="geometry" />
        </mxCell>
        <mxCell id="JkCgDZ_3WZx2CO2fW6xH-54" value="" style="endArrow=classic;html=1;rounded=0;exitX=0;exitY=0.5;exitDx=0;exitDy=0;" parent="1" source="JkCgDZ_3WZx2CO2fW6xH-48" target="JkCgDZ_3WZx2CO2fW6xH-53" edge="1">
          <mxGeometry width="50" height="50" relative="1" as="geometry">
            <mxPoint x="672" y="283" as="sourcePoint" />
            <mxPoint x="722" y="233" as="targetPoint" />
          </mxGeometry>
        </mxCell>
        <mxCell id="JkCgDZ_3WZx2CO2fW6xH-55" value="" style="endArrow=classic;html=1;rounded=0;fillColor=#f8cecc;strokeColor=#b85450;entryX=0.521;entryY=0.042;entryDx=0;entryDy=0;entryPerimeter=0;" parent="1" target="MhE1UDLTlUyAmdOrouHi-6" edge="1">
          <mxGeometry width="50" height="50" relative="1" as="geometry">
            <mxPoint x="612.4" y="197" as="sourcePoint" />
            <mxPoint x="662.4" y="147" as="targetPoint" />
            <Array as="points">
              <mxPoint x="655" y="197" />
            </Array>
          </mxGeometry>
        </mxCell>
        <mxCell id="JkCgDZ_3WZx2CO2fW6xH-56" value="" style="endArrow=classic;html=1;rounded=0;entryX=1.012;entryY=0.24;entryDx=0;entryDy=0;entryPerimeter=0;fillColor=#dae8fc;strokeColor=#6c8ebf;" parent="1" edge="1">
          <mxGeometry width="50" height="50" relative="1" as="geometry">
            <mxPoint x="714.04" y="178.1" as="sourcePoint" />
            <mxPoint x="630" y="143.8" as="targetPoint" />
            <Array as="points">
              <mxPoint x="714.04" y="144" />
            </Array>
          </mxGeometry>
        </mxCell>
        <mxCell id="MhE1UDLTlUyAmdOrouHi-1" value="" style="whiteSpace=wrap;html=1;aspect=fixed;" vertex="1" parent="1">
          <mxGeometry x="481" y="276" width="13" height="13" as="geometry" />
        </mxCell>
        <mxCell id="MhE1UDLTlUyAmdOrouHi-2" value="" style="whiteSpace=wrap;html=1;aspect=fixed;" vertex="1" parent="1">
          <mxGeometry x="494" y="276" width="13" height="13" as="geometry" />
        </mxCell>
        <mxCell id="MhE1UDLTlUyAmdOrouHi-3" value="" style="whiteSpace=wrap;html=1;aspect=fixed;" vertex="1" parent="1">
          <mxGeometry x="507" y="276" width="13" height="13" as="geometry" />
        </mxCell>
        <mxCell id="MhE1UDLTlUyAmdOrouHi-4" value="" style="whiteSpace=wrap;html=1;aspect=fixed;" vertex="1" parent="1">
          <mxGeometry x="675" y="276" width="13" height="13" as="geometry" />
        </mxCell>
        <mxCell id="MhE1UDLTlUyAmdOrouHi-5" value="" style="whiteSpace=wrap;html=1;aspect=fixed;" vertex="1" parent="1">
          <mxGeometry x="662" y="276" width="13" height="13" as="geometry" />
        </mxCell>
        <mxCell id="MhE1UDLTlUyAmdOrouHi-6" value="" style="whiteSpace=wrap;html=1;aspect=fixed;" vertex="1" parent="1">
          <mxGeometry x="649" y="276" width="13" height="13" as="geometry" />
        </mxCell>
      </root>
    </mxGraphModel>
  </diagram>
</mxfile>
